# xmcd
#
# Track frame offsets:
#	150
#	8485
#	16195
#	39652
#	84135
#	112417
#	132125
#	156697
#
# Disc length: 2330
#
# Revision: 4
# Processed by: cddbd v1.5.1PL0 Copyright (c) Steve Scherf et al.
# Submitted via: CDex 1.51
# Normalized: r3:TRMNUM
#
DISCID=5b091808
DTITLE=B.B. King - Live In Cook County Jail
DYEAR=1971
DGENRE=Blues
TTITLE0=Introduction
TTITLE1=Everyday I Have The Blues
TTITLE2=How Blues Can You Get
TTITLE3=Worry, Worry, Worry
TTITLE4=3 O'Clock Blues-Darlin' You Know I Love You
TTITLE5=Sweet Sixteen
TTITLE6=The Thrill Is Gone
TTITLE7=Please Accept My Love
EXTD=YEAR: 1971
EXTT0=
EXTT1=
EXTT2=
EXTT3=
EXTT4=
EXTT5=
EXTT6=
EXTT7=
PLAYORDER=
